<svg xmlns="http://www.w3.org/2000/svg" xmlns:xlink="http://www.w3.org/1999/xlink" viewBox="0 0 317.67 214.4"><defs><style>.cls-1{fill:none;stroke:#000;stroke-miterlimit:10;stroke-width:6.13px;}.cls-2{fill:url(#Dégradé_sans_nom_23);}</style><linearGradient id="Dégradé_sans_nom_23" y1="142.7" x2="143.68" y2="142.7" gradientUnits="userSpaceOnUse"><stop offset="0" stop-color="#0857c3"/><stop offset="1" stop-color="#656bff"/></linearGradient></defs><title>Icone</title><g id="Icone"><polygon points="131.55 51.49 172.39 101.64 183.71 101.64 183.71 27.58 170.06 27.58 170.06 77.73 129.22 27.58 117.9 27.58 117.9 101.64 131.55 101.64 131.55 51.49"/><path d="M224.69,27.81v50q0,13.44-11.36,13.45-8.45,0-14.48-8.34l-7.71,9.27a25,25,0,0,0,9.64,7.76,29.91,29.91,0,0,0,12.87,2.76q12.07,0,18.33-6.41t6.25-19.21l.68-49.48"/><path d="M316.74,93.41V64.35H303.92V87.06a29.33,29.33,0,0,1-15,3.75,27.44,27.44,0,0,1-13.6-3.34A24.2,24.2,0,0,1,266,78.31a25.66,25.66,0,0,1-3.39-13.13A26,26,0,0,1,266,51.85a23.57,23.57,0,0,1,9.37-9.07A28.48,28.48,0,0,1,289,39.55a27.4,27.4,0,0,1,20.1,8.34l8.54-8.34a32.61,32.61,0,0,0-12.6-8.85,44.33,44.33,0,0,0-16.67-3,42.07,42.07,0,0,0-20.26,4.84A35.91,35.91,0,0,0,254,45.91a36.86,36.86,0,0,0-5.1,19.27A36.86,36.86,0,0,0,254,84.45a36,36,0,0,0,14.06,13.39,41.62,41.62,0,0,0,20.11,4.84,50.28,50.28,0,0,0,15.42-2.39A40.75,40.75,0,0,0,316.74,93.41Z"/><path class="cls-1" d="M177.9,117.72a62.83,62.83,0,1,1-.27-103.84"/><path class="cls-2" d="M64.66,71a71.88,71.88,0,1,0,79,74.14A80.5,80.5,0,0,1,64.66,71Z"/><circle cx="177.44" cy="121.28" r="9.5"/></g></svg>