<svg xmlns="http://www.w3.org/2000/svg" xmlns:xlink="http://www.w3.org/1999/xlink" viewBox="0 0 541.66 214.4"><defs><style>.cls-1,.cls-3{fill:none;}.cls-1{stroke:#000;stroke-miterlimit:10;stroke-width:6.13px;}.cls-2{fill:url(#Dégradé_sans_nom_23);}.cls-4{fill:url(#Dégradé_sans_nom_6);}</style><linearGradient id="Dégradé_sans_nom_23" y1="142.7" x2="143.68" y2="142.7" gradientUnits="userSpaceOnUse"><stop offset="0" stop-color="#0857c3"/><stop offset="1" stop-color="#656bff"/></linearGradient><linearGradient id="Dégradé_sans_nom_6" x1="401.53" y1="153.75" x2="440.15" y2="187.28" xlink:href="#Dégradé_sans_nom_23"/></defs><title>Original</title><g id="Original"><polygon points="131.55 51.49 172.39 101.64 183.71 101.64 183.71 27.58 170.06 27.58 170.06 77.73 129.22 27.58 117.9 27.58 117.9 101.64 131.55 101.64 131.55 51.49"/><path d="M224.69,27.81v50q0,13.44-11.36,13.45-8.45,0-14.48-8.34l-7.71,9.27a25,25,0,0,0,9.64,7.76,29.91,29.91,0,0,0,12.87,2.76q12.07,0,18.33-6.41t6.25-19.21l.68-49.48"/><path d="M316.74,93.41V64.35H303.92V87.06a29.33,29.33,0,0,1-15,3.75,27.44,27.44,0,0,1-13.6-3.34A24.2,24.2,0,0,1,266,78.31a25.66,25.66,0,0,1-3.39-13.13A26,26,0,0,1,266,51.85a23.57,23.57,0,0,1,9.37-9.07A28.48,28.48,0,0,1,289,39.55a27.4,27.4,0,0,1,20.1,8.34l8.54-8.34a32.61,32.61,0,0,0-12.6-8.85,44.33,44.33,0,0,0-16.67-3,42.07,42.07,0,0,0-20.26,4.84A35.91,35.91,0,0,0,254,45.91a36.86,36.86,0,0,0-5.1,19.27A36.86,36.86,0,0,0,254,84.45a36,36,0,0,0,14.06,13.39,41.62,41.62,0,0,0,20.11,4.84,50.28,50.28,0,0,0,15.42-2.39A40.75,40.75,0,0,0,316.74,93.41Z"/><path class="cls-1" d="M177.9,117.72a62.83,62.83,0,1,1-.27-103.84"/><path class="cls-2" d="M64.66,71a71.88,71.88,0,1,0,79,74.14A80.5,80.5,0,0,1,64.66,71Z"/><path class="cls-3" d="M422,151.92a17.16,17.16,0,0,0-12.24,4.65,18.27,18.27,0,0,0-5.62,12.15H440a18.31,18.31,0,0,0-5.62-12.15A17.31,17.31,0,0,0,422,151.92Z"/><path class="cls-3" d="M242.36,154.46a20.23,20.23,0,0,0-19.3,0,17.33,17.33,0,0,0-6.72,7,22.75,22.75,0,0,0,0,20.54,17.36,17.36,0,0,0,6.72,7,20.23,20.23,0,0,0,19.3,0,17.05,17.05,0,0,0,6.67-7,23.17,23.17,0,0,0,0-20.54A17,17,0,0,0,242.36,154.46Z"/><path d="M153.8,171.69a26.42,26.42,0,0,0,3.35,13.3,23.62,23.62,0,0,0,9.27,9.17,27.18,27.18,0,0,0,13.39,3.26,26.09,26.09,0,0,0,11.62-2.54,19.37,19.37,0,0,0,8.16-7.44L194.5,184a15.59,15.59,0,0,1-6.33,5.57,19.19,19.19,0,0,1-8.36,1.83,19.82,19.82,0,0,1-9.84-2.45,17.35,17.35,0,0,1-6.81-6.91,22.88,22.88,0,0,1,0-20.6,17.16,17.16,0,0,1,6.81-7,19.82,19.82,0,0,1,9.84-2.45,18.94,18.94,0,0,1,8.36,1.87,16,16,0,0,1,6.33,5.62l5.09-3.46a19.48,19.48,0,0,0-8.11-7.44,26,26,0,0,0-11.67-2.54,27.28,27.28,0,0,0-13.39,3.26,23.79,23.79,0,0,0-9.27,9.13,26.11,26.11,0,0,0-3.35,13.24"/><path d="M245.86,149.32a28.15,28.15,0,0,0-26.3,0,23.79,23.79,0,0,0-9.22,9.13,27.79,27.79,0,0,0,0,26.49,24.1,24.1,0,0,0,9.22,9.17,27.78,27.78,0,0,0,26.3,0,23.7,23.7,0,0,0,9.17-9.17,28.16,28.16,0,0,0,0-26.49A23.4,23.4,0,0,0,245.86,149.32ZM249,182a17.05,17.05,0,0,1-6.67,7,20.23,20.23,0,0,1-19.3,0,17.36,17.36,0,0,1-6.72-7,22.75,22.75,0,0,1,0-20.54,17.33,17.33,0,0,1,6.72-7,20.23,20.23,0,0,1,19.3,0,17,17,0,0,1,6.67,7A23.17,23.17,0,0,1,249,182Z"/><path d="M298,146.06a24.83,24.83,0,0,0-11.48,2.54,19.09,19.09,0,0,0-7.73,7.16v-9.32h-6.52v50.5h6.81v-26.5q0-8.53,4.75-13.39t12.92-4.84q7.29,0,11.23,4.12t3.94,12v28.6h6.81V167.66q0-10.56-5.61-16.08T298,146.06Z"/><path d="M363,146.06a24.79,24.79,0,0,0-11.47,2.54,19,19,0,0,0-7.73,7.16v-9.32h-6.53v50.5h6.82v-26.5q0-8.53,4.75-13.39t12.91-4.84q7.29,0,11.23,4.12t3.94,12v28.6h6.82V167.66q0-10.56-5.62-16.08T363,146.06Z"/><path class="cls-4" d="M434.61,149.32A24.43,24.43,0,0,0,422,146.06a24.71,24.71,0,0,0-12.63,3.26,23.3,23.3,0,0,0-8.83,9.13,27,27,0,0,0-3.22,13.24,26.13,26.13,0,0,0,3.36,13.25,23.86,23.86,0,0,0,9.36,9.17,28,28,0,0,0,13.78,3.31A28.39,28.39,0,0,0,435,195.31a21.71,21.71,0,0,0,8.4-6.14l-3.84-4.42a18.66,18.66,0,0,1-6.82,4.94,21.76,21.76,0,0,1-8.64,1.69q-8.35,0-13.82-4.85a18.06,18.06,0,0,1-6.05-12.72h42.24l.1-2.12a27.32,27.32,0,0,0-3.17-13.29A23.21,23.21,0,0,0,434.61,149.32Zm-30.43,19.4a18.27,18.27,0,0,1,5.62-12.15,18.55,18.55,0,0,1,24.57,0A18.31,18.31,0,0,1,440,168.72Z"/><path d="M471.53,154.46a19.78,19.78,0,0,1,9.83-2.45,18.94,18.94,0,0,1,8.36,1.87,16,16,0,0,1,6.33,5.62l5.09-3.46A19.36,19.36,0,0,0,493,148.6a26,26,0,0,0-11.67-2.54A27.28,27.28,0,0,0,468,149.32a23.76,23.76,0,0,0-9.26,9.13,26.12,26.12,0,0,0-3.36,13.24,26.42,26.42,0,0,0,3.36,13.3,23.6,23.6,0,0,0,9.26,9.17,27.18,27.18,0,0,0,13.39,3.26A26.09,26.09,0,0,0,493,194.88a19.31,19.31,0,0,0,8.16-7.44L496.05,184a15.52,15.52,0,0,1-6.33,5.57,19.19,19.19,0,0,1-8.36,1.83,19.78,19.78,0,0,1-9.83-2.45,17.31,17.31,0,0,1-6.82-6.91,22.88,22.88,0,0,1,0-20.6A17.12,17.12,0,0,1,471.53,154.46Z"/><path d="M539.25,189a9.81,9.81,0,0,1-3.41,1.92,12.46,12.46,0,0,1-4.07.68,8.58,8.58,0,0,1-6.48-2.35q-2.26-2.35-2.26-6.87V152.21h15.36v-5.77H523v-11h-6.82v11h-9v5.77h9v30.53q0,7,3.84,10.84t11,3.84a19.1,19.1,0,0,0,5.9-.91,12.92,12.92,0,0,0,4.76-2.64Z"/><circle cx="177.44" cy="121.28" r="9.5"/></g></svg>